<svg width="70" height="96" viewBox="0 0 70 96" fill="none" xmlns="http://www.w3.org/2000/svg">
<mask id="path-1-outside-1_76_3" maskUnits="userSpaceOnUse" x="0" y="0" width="70" height="96" fill="black">
<rect fill="white" width="70" height="96"/>
<path d="M1.27273 95V1.90909H32.7273C40 1.90909 45.9697 3.15151 50.6364 5.63636C55.303 8.0909 58.7576 11.4697 61 15.7727C63.2424 20.0758 64.3636 24.9697 64.3636 30.4545C64.3636 35.9394 63.2424 40.803 61 45.0455C58.7576 49.2879 55.3182 52.6212 50.6818 55.0455C46.0455 57.4394 40.1212 58.6364 32.9091 58.6364H7.45455V48.4545H32.5455C37.5152 48.4545 41.5152 47.7273 44.5455 46.2727C47.6061 44.8182 49.8182 42.7576 51.1818 40.0909C52.5758 37.3939 53.2727 34.1818 53.2727 30.4545C53.2727 26.7273 52.5758 23.4697 51.1818 20.6818C49.7879 17.8939 47.5606 15.7424 44.5 14.2273C41.4394 12.6818 37.3939 11.9091 32.3636 11.9091H12.5455V95H1.27273ZM45.0909 53.1818L68 95H54.9091L32.3636 53.1818H45.0909Z"/>
</mask>
<path d="M1.27273 95V1.90909H32.7273C40 1.90909 45.9697 3.15151 50.6364 5.63636C55.303 8.0909 58.7576 11.4697 61 15.7727C63.2424 20.0758 64.3636 24.9697 64.3636 30.4545C64.3636 35.9394 63.2424 40.803 61 45.0455C58.7576 49.2879 55.3182 52.6212 50.6818 55.0455C46.0455 57.4394 40.1212 58.6364 32.9091 58.6364H7.45455V48.4545H32.5455C37.5152 48.4545 41.5152 47.7273 44.5455 46.2727C47.6061 44.8182 49.8182 42.7576 51.1818 40.0909C52.5758 37.3939 53.2727 34.1818 53.2727 30.4545C53.2727 26.7273 52.5758 23.4697 51.1818 20.6818C49.7879 17.8939 47.5606 15.7424 44.5 14.2273C41.4394 12.6818 37.3939 11.9091 32.3636 11.9091H12.5455V95H1.27273ZM45.0909 53.1818L68 95H54.9091L32.3636 53.1818H45.0909Z" fill="#F2635D"/>
<path d="M1.27273 95H0.272728V96H1.27273V95ZM1.27273 1.90909V0.909088H0.272728V1.90909H1.27273ZM50.6364 5.63636L50.1664 6.51904L50.1709 6.5214L50.6364 5.63636ZM61 15.7727L60.1132 16.2349L60.1132 16.2349L61 15.7727ZM61 45.0455L60.1159 44.5781L60.1159 44.5781L61 45.0455ZM50.6818 55.0455L51.1406 55.934L51.1452 55.9316L50.6818 55.0455ZM7.45455 58.6364H6.45455V59.6364H7.45455V58.6364ZM7.45455 48.4545V47.4545H6.45455V48.4545H7.45455ZM44.5455 46.2727L44.1162 45.3695L44.1127 45.3712L44.5455 46.2727ZM51.1818 40.0909L50.2935 39.6318L50.2915 39.6356L51.1818 40.0909ZM44.5 14.2273L44.0492 15.12L44.0563 15.1235L44.5 14.2273ZM12.5455 11.9091V10.9091H11.5455V11.9091H12.5455ZM12.5455 95V96H13.5455V95H12.5455ZM45.0909 53.1818L45.9679 52.7014L45.6833 52.1818H45.0909V53.1818ZM68 95V96H69.6881L68.877 94.5195L68 95ZM54.9091 95L54.0289 95.4746L54.3122 96H54.9091V95ZM32.3636 53.1818V52.1818H30.6884L31.4834 53.6564L32.3636 53.1818ZM2.27273 95V1.90909H0.272728V95H2.27273ZM1.27273 2.90909H32.7273V0.909088H1.27273V2.90909ZM32.7273 2.90909C39.8946 2.90909 45.6884 4.13468 50.1664 6.51903L51.1064 4.75369C46.251 2.16834 40.1054 0.909088 32.7273 0.909088V2.90909ZM50.1709 6.5214C54.6737 8.88978 57.9731 12.1282 60.1132 16.2349L61.8868 15.3106C59.5421 10.8112 55.9324 7.29203 51.1019 4.75132L50.1709 6.5214ZM60.1132 16.2349C62.272 20.3775 63.3636 25.1094 63.3636 30.4545H65.3636C65.3636 24.83 64.2128 19.774 61.8868 15.3106L60.1132 16.2349ZM63.3636 30.4545C63.3636 35.8 62.2719 40.4992 60.1159 44.5781L61.8841 45.5128C64.2129 41.1069 65.3636 36.0788 65.3636 30.4545H63.3636ZM60.1159 44.5781C57.9767 48.6254 54.6924 51.82 50.2185 54.1593L51.1452 55.9316C55.944 53.4224 59.5385 49.9504 61.8841 45.5128L60.1159 44.5781ZM50.223 54.1569C45.7722 56.4551 40.0193 57.6364 32.9091 57.6364V59.6364C40.2231 59.6364 46.3187 58.4237 51.1406 55.934L50.223 54.1569ZM32.9091 57.6364H7.45455V59.6364H32.9091V57.6364ZM8.45455 58.6364V48.4545H6.45455V58.6364H8.45455ZM7.45455 49.4545H32.5455V47.4545H7.45455V49.4545ZM32.5455 49.4545C37.5991 49.4545 41.7639 48.7171 44.9782 47.1742L44.1127 45.3712C41.2664 46.7375 37.4312 47.4545 32.5455 47.4545V49.4545ZM44.9747 47.1759C48.2067 45.6399 50.5953 43.4343 52.0722 40.5462L50.2915 39.6356C49.0411 42.0809 47.0054 43.9964 44.1162 45.3695L44.9747 47.1759ZM52.0702 40.5501C53.5523 37.6824 54.2727 34.3057 54.2727 30.4545H52.2727C52.2727 34.0579 51.5992 37.1055 50.2935 39.6318L52.0702 40.5501ZM54.2727 30.4545C54.2727 26.6021 53.5519 23.186 52.0762 20.2346L50.2874 21.129C51.5996 23.7534 52.2727 26.8524 52.2727 30.4545H54.2727ZM52.0762 20.2346C50.5755 17.2332 48.1797 14.9331 44.9437 13.3311L44.0563 15.1235C46.9416 16.5518 49.0002 18.5547 50.2874 21.129L52.0762 20.2346ZM44.9507 13.3346C41.7005 11.6934 37.4829 10.9091 32.3636 10.9091V12.9091C37.3049 12.9091 41.1783 13.6702 44.0493 15.1199L44.9507 13.3346ZM32.3636 10.9091H12.5455V12.9091H32.3636V10.9091ZM11.5455 11.9091V95H13.5455V11.9091H11.5455ZM12.5455 94H1.27273V96H12.5455V94ZM44.2139 53.6623L67.123 95.4805L68.877 94.5195L45.9679 52.7014L44.2139 53.6623ZM68 94H54.9091V96H68V94ZM55.7893 94.5254L33.2439 52.7073L31.4834 53.6564L54.0289 95.4746L55.7893 94.5254ZM32.3636 54.1818H45.0909V52.1818H32.3636V54.1818Z" fill="#EFDFD1" mask="url(#path-1-outside-1_76_3)"/>
</svg>
